<svg data-v-fde0c5aa="" xmlns="http://www.w3.org/2000/svg" viewBox="0 0 300 300" class="iconAbove"><defs data-v-fde0c5aa=""></defs><rect data-v-fde0c5aa="" fill="transparent" x="0" y="0" width="300px" height="300px" class="logo-background-square"></rect><defs data-v-fde0c5aa=""></defs><g data-v-fde0c5aa="" id="f847f99b-76bc-4249-a367-39db84962c26" fill="#000000" transform="matrix(3.42646261556702,0,0,3.42646261556702,15.511334169670995,161.9810204495511)"><path d="M1.31 16.19L1.31 5.69L9.20 5.69Q10.18 5.69 10.85 5.77Q11.53 5.86 11.96 6.03Q12.40 6.20 12.64 6.45Q12.87 6.71 12.98 7.05Q13.09 7.39 13.11 7.81Q13.13 8.24 13.13 8.75L13.13 8.75Q13.13 9.28 13.10 9.73Q13.08 10.19 12.94 10.55Q12.81 10.92 12.52 11.19Q12.23 11.47 11.69 11.66Q11.16 11.84 10.33 11.94Q9.51 12.03 8.31 12.03L8.31 12.03L2.63 12.03L2.63 16.19L1.31 16.19ZM2.63 6.78L2.63 10.94L8.31 10.94Q9.18 10.94 9.78 10.91Q10.38 10.88 10.77 10.79Q11.16 10.71 11.37 10.56Q11.58 10.41 11.68 10.17Q11.78 9.92 11.80 9.57Q11.81 9.23 11.81 8.75L11.81 8.75Q11.81 8.31 11.80 7.98Q11.78 7.66 11.68 7.44Q11.58 7.23 11.37 7.10Q11.16 6.97 10.77 6.89Q10.38 6.82 9.78 6.80Q9.18 6.78 8.31 6.78L8.31 6.78L2.63 6.78ZM13.78 12.20L13.78 12.20Q13.78 10.99 14.04 10.19Q14.30 9.40 14.88 8.93Q15.45 8.47 16.37 8.28Q17.28 8.09 18.59 8.09L18.59 8.09Q19.91 8.09 20.82 8.28Q21.74 8.47 22.31 8.93Q22.89 9.40 23.15 10.19Q23.41 10.99 23.41 12.20L23.41 12.20Q23.41 13.41 23.15 14.21Q22.89 15.00 22.31 15.48Q21.74 15.95 20.82 16.14Q19.91 16.34 18.59 16.34L18.59 16.34Q17.28 16.34 16.37 16.14Q15.45 15.95 14.88 15.48Q14.30 15.00 14.04 14.21Q13.78 13.41 13.78 12.20ZM15.09 12.20L15.09 12.20Q15.09 12.85 15.14 13.34Q15.19 13.82 15.32 14.17Q15.46 14.52 15.70 14.74Q15.93 14.96 16.32 15.09Q16.71 15.22 17.27 15.26Q17.83 15.31 18.59 15.31L18.59 15.31Q19.25 15.31 19.77 15.28Q20.28 15.25 20.67 15.14Q21.05 15.03 21.33 14.83Q21.60 14.63 21.77 14.28Q21.94 13.93 22.02 13.42Q22.09 12.91 22.09 12.20L22.09 12.20Q22.09 11.49 22.02 11.00Q21.94 10.50 21.77 10.17Q21.60 9.83 21.33 9.64Q21.05 9.44 20.67 9.34Q20.28 9.24 19.77 9.21Q19.25 9.19 18.59 9.19L18.59 9.19Q17.94 9.19 17.42 9.21Q16.91 9.24 16.52 9.34Q16.13 9.44 15.86 9.64Q15.59 9.83 15.42 10.17Q15.25 10.50 15.17 11.00Q15.09 11.49 15.09 12.20ZM34.13 16.19L32.81 16.19L32.81 11.81Q32.81 11.08 32.70 10.58Q32.59 10.08 32.27 9.77Q31.94 9.46 31.34 9.32Q30.73 9.19 29.75 9.19L29.75 9.19Q28.68 9.19 28.00 9.34Q27.32 9.50 26.93 9.79Q26.54 10.08 26.40 10.48Q26.25 10.88 26.25 11.38L26.25 11.38L26.25 16.19L24.94 16.19L24.94 8.31L26.25 8.31L26.25 9.63Q26.39 9.29 26.66 9.05Q26.93 8.80 27.26 8.63Q27.60 8.46 27.99 8.36Q28.38 8.25 28.77 8.19Q29.16 8.13 29.52 8.11Q29.89 8.09 30.19 8.09L30.19 8.09Q31.06 8.09 31.69 8.20Q32.33 8.31 32.77 8.52Q33.21 8.74 33.48 9.05Q33.74 9.37 33.89 9.78Q34.04 10.19 34.08 10.70Q34.13 11.21 34.13 11.81L34.13 11.81L34.13 16.19ZM35.01 8.31L39.16 16.19L39.60 16.19Q39.49 16.41 39.41 16.60Q39.32 16.80 39.20 16.97Q39.07 17.14 38.89 17.28Q38.71 17.42 38.40 17.52Q38.10 17.62 37.65 17.67Q37.19 17.72 36.54 17.72L36.54 17.72L36.54 18.81Q37.30 18.81 37.86 18.74Q38.42 18.67 38.83 18.54Q39.24 18.40 39.52 18.21Q39.80 18.02 40.00 17.78Q40.21 17.53 40.37 17.24Q40.53 16.95 40.69 16.63L40.69 16.63L40.91 16.19L44.85 8.31L43.32 8.31L40.04 15.31L36.54 8.31L35.01 8.31ZM56.23 16.19L46.60 16.19L46.60 5.69L47.91 5.69L47.91 15.09L56.23 15.09L56.23 16.19ZM64.50 16.19L64.50 15.11Q64.48 15.19 64.20 15.52L64.20 15.52Q63.99 15.76 63.65 15.95Q63.31 16.14 62.74 16.25Q62.17 16.35 61.24 16.35L61.24 16.35Q60.00 16.35 59.12 16.23Q58.25 16.10 57.70 15.84Q57.14 15.57 56.89 15.16Q56.63 14.75 56.63 14.18L56.63 14.18Q56.63 13.59 56.77 13.18Q56.91 12.76 57.18 12.48Q57.45 12.20 57.83 12.04Q58.21 11.89 58.70 11.81Q59.19 11.72 59.77 11.70Q60.35 11.68 61.01 11.68L61.01 11.68Q61.95 11.68 62.58 11.76Q63.21 11.84 63.60 11.96Q64.00 12.08 64.21 12.22Q64.42 12.35 64.50 12.47L64.50 12.47Q64.50 11.70 64.44 11.16Q64.37 10.62 64.23 10.26Q64.08 9.90 63.85 9.68Q63.62 9.47 63.28 9.36Q62.94 9.25 62.49 9.22Q62.04 9.19 61.46 9.19L61.46 9.19Q60.55 9.19 59.96 9.23Q59.36 9.28 59.01 9.41Q58.67 9.54 58.52 9.77Q58.38 9.99 58.38 10.36L58.38 10.36L57.07 10.36Q57.07 9.74 57.29 9.31Q57.51 8.88 58.03 8.61Q58.54 8.34 59.38 8.22Q60.22 8.09 61.46 8.09L61.46 8.09Q62.66 8.09 63.49 8.29Q64.33 8.49 64.84 8.99Q65.36 9.49 65.59 10.33Q65.82 11.18 65.82 12.47L65.82 12.47L65.82 16.19L64.50 16.19ZM61.46 15.31L61.46 15.31Q62.32 15.31 62.91 15.23Q63.49 15.15 63.85 14.98Q64.20 14.82 64.35 14.57Q64.50 14.33 64.50 14L64.50 14Q64.50 13.67 64.33 13.44Q64.16 13.21 63.75 13.07Q63.34 12.93 62.67 12.86Q62.00 12.80 61.02 12.80L61.02 12.80Q60.03 12.80 59.43 12.83Q58.82 12.87 58.50 12.99Q58.17 13.11 58.05 13.35Q57.94 13.59 57.94 14L57.94 14Q57.94 14.41 58.06 14.67Q58.18 14.92 58.55 15.07Q58.92 15.21 59.61 15.26Q60.31 15.31 61.46 15.31ZM72.38 16.34L72.38 16.34Q71.44 16.34 70.81 16.21Q70.18 16.08 69.79 15.94Q69.39 15.79 69.19 15.47Q68.98 15.16 68.88 14.98L68.88 14.98L68.88 16.19L67.57 16.19L67.57 5.69L68.88 5.69L68.88 9.06Q68.97 8.91 69.18 8.75Q69.38 8.58 69.78 8.43Q70.18 8.29 70.81 8.19Q71.44 8.09 72.38 8.09L72.38 8.09Q73.69 8.09 74.61 8.29Q75.52 8.49 76.10 8.97Q76.67 9.45 76.93 10.25Q77.19 11.05 77.19 12.26L77.19 12.26Q77.19 13.45 76.93 14.24Q76.67 15.03 76.10 15.49Q75.52 15.96 74.61 16.15Q73.69 16.34 72.38 16.34ZM72.38 15.31L72.38 15.31Q73.14 15.31 73.70 15.26Q74.26 15.22 74.65 15.09Q75.04 14.97 75.28 14.75Q75.52 14.53 75.66 14.19Q75.79 13.86 75.83 13.38Q75.88 12.91 75.88 12.26L75.88 12.26Q75.88 11.62 75.83 11.14Q75.79 10.66 75.66 10.33Q75.52 9.99 75.28 9.77Q75.04 9.54 74.65 9.42Q74.26 9.29 73.70 9.24Q73.14 9.19 72.38 9.19L72.38 9.19Q71.72 9.19 71.21 9.23Q70.70 9.26 70.31 9.37Q69.92 9.47 69.65 9.68Q69.38 9.88 69.21 10.23Q69.04 10.57 68.96 11.07Q68.88 11.58 68.88 12.28L68.88 12.28Q68.88 12.98 68.96 13.48Q69.04 13.97 69.21 14.31Q69.38 14.64 69.65 14.84Q69.92 15.05 70.31 15.15Q70.70 15.25 71.21 15.28Q71.72 15.31 72.38 15.31Z"></path></g><defs data-v-fde0c5aa=""><linearGradient data-v-fde0c5aa="" gradientTransform="rotate(25)" id="9c8f5c93-dc73-4571-8295-a6a39c7090a4" x1="0%" y1="0%" x2="100%" y2="0%"><stop data-v-fde0c5aa="" offset="0%" stop-color="#E90DCA" stop-opacity="1"></stop><stop data-v-fde0c5aa="" offset="100%" stop-color="#1536F1" stop-opacity="1"></stop></linearGradient></defs><g data-v-fde0c5aa="" id="c1114fcd-f13a-4bd6-901f-c0320ddc62bc" stroke="none" fill="url(#9c8f5c93-dc73-4571-8295-a6a39c7090a4)" transform="matrix(3.856331531342978,0,0,3.856331531342978,88.29869549851236,56.81917362488641)"><path d="M12.289 5.343v19.9L1 13.954V5.343zm1-1H0v10.026l13.289 13.289zM31 5.343v8.612L19.711 25.243v-19.9zm1-1H18.711v23.315L32 14.369z"></path></g></svg>